@startuml

interface FoodSearchResultItem
{
  String name
  any source
  String icon?
  String image?
  String extraInformation
}

class FoodSearchResult {
  SearchResultItem[] results
}

namespace v2.ngxs-store {

class NutritionDay {
  Date day
  Meal[] meals
  Macros macros
}

class Macros {
  int protein
  int carbs
  int fats
  int calories
}

Class Meal {
  LoggedItem[] items
}


class FoodItem << TrackedFood >> {

}

NutritionDay -|> Macros
NutritionDay --|> Meal
Meal --|> FoodItem
}

                              interface TrackedFood {
  id: number;
  nutrition_day_id: number;
  meal: number;
  name: string;
  fats: number;
  carbs: number;
  protein: number;
  calories: number;
  fiber?: number;
  consumed_amount: number;
  consumed_unit: string;
  is_custom: boolean;
  is_custom_food_template: boolean;
  serving_information: ServingInfo;
  is_branded_food: boolean;
  nutritioninx_item_id: string | null;
  nutritioninx_food_name: string | null;
  total_count?: number;
  thumbnail?: string;
}

class ServingInfo {
  id: number;
  tracked_item_id: number;
  fiber?: number;
  fats: number;
  carbs: number;
  protein: number;
  calories: number;
  serving_amount: number;
  serving_unit: string;
  alt_servings: AltServing[];
}


FoodSearchResult --|> FoodSearchResultItem


SearchResult --|> BrandedFood
SearchResult --|> CommonFood
CommonDetailFood --|> CommonFood
CommonDetailFood --|> BrandedFood

class SearchResult {
 any[] common
 BrandedFood[] branded
}

class CommonFood {
}

class BrandedFood {
  brand_name: string;
  brand_name_item_name: string;
  brand_type: number;
  food_name: string;
  nf_calories: number;
  nix_item_id: string;
  nix_brand_id: string;
  serving_qty: number;
  serving_weight: number;
  serving_unit: string;
}

class FoodPhoto {
        thumb: String;
        highres?: String;
      }

class CommonDetailFood << BrandedFood>> {
  alt_measures: AltServing[] | null;
  brand_name: string | null;
  food_name: string;
  nf_calories: number;
  nf_protein: number;
  nf_total_fat: number;
  nf_total_carbohydrate: number;
  nf_dietary_fiber?: number;
  serving_qty: number;
  serving_unit: string;
  serving_weight_grams: number;
  nix_brand_name: string;
  photo?: FoodPhoto;
}

@enduml
